<?xml version="1.0" encoding="utf-8"?>
<!-- Generator: Adobe Illustrator 22.0.1, SVG Export Plug-In . SVG Version: 6.00 Build 0)  -->
<svg version="1.1" id="Layer_1" xmlns="http://www.w3.org/2000/svg" xmlns:xlink="http://www.w3.org/1999/xlink" x="0px" y="0px"
	 viewBox="0 0 512 512" style="enable-background:new 0 0 512 512;" xml:space="preserve">
<style type="text/css">
	.st0{fill:#676E74;}
	.st1{fill:#FF6175;}
	.st2{fill:#7AFF96;}
	.st3{fill:#1C1C1C;}
</style>
<path class="st0" d="M456,430v72h-60V390h20C438.1,390,456,407.9,456,430z"/>
<path class="st1" d="M356.1,90H155.9c-22.1,0-40,17.9-40,40v140c0,22.1,17.9,40,40,40h200.1c22.1,0,40-17.9,40-40V130
	C396.1,107.9,378.1,90,356.1,90z"/>
<path class="st1" d="M356,350H156c-22.1,0-40,17.9-40,40v112h280V390C396,367.9,378.1,350,356,350z"/>
<g>
	<path class="st2" d="M356,160c0,16.6-13.4,30-30,30s-30-13.4-30-30s13.4-30,30-30S356,143.4,356,160z"/>
	<path class="st2" d="M316,230H196c-11.1,0-20,8.9-20,20v60h160v-60C336,238.9,327.1,230,316,230z"/>
	<path class="st2" d="M316,450v52H196v-52c0-11.1,8.9-20,20-20h80C307.1,430,316,438.9,316,450z"/>
</g>
<path class="st0" d="M196,310h120v40H196V310z"/>
<path class="st0" d="M316,70v20H196V70c0-11.1,8.9-20,20-20h80C307.1,50,316,58.9,316,70z"/>
<path class="st2" d="M216,160c0,16.6-13.4,30-30,30s-30-13.4-30-30s13.4-30,30-30S216,143.4,216,160z"/>
<path class="st0" d="M116,390v112H56v-72c0-22.1,17.9-40,40-40H116z"/>
<path class="st3" d="M56,512h400c5.5,0,10-4.5,10-10v-72c0-27.6-22.4-50-50-50h-11c-4.6-22.8-24.8-40-49-40h-30v-20h30.1
	c27.6,0,49.9-22.4,49.9-50V130c0-27.6-22.4-50-49.9-50H326V70c0-16.5-13.5-30-30-30h-30V10c0-5.5-4.5-10-10-10s-10,4.5-10,10v30h-30
	c-16.5,0-30,13.5-30,30v10h-30.1c-27.6,0-49.9,22.4-49.9,50v60c0,5.5,4.4,10,9.9,10s10-4.5,10-10v-20h21.3c4.5,17.2,20.1,30,38.7,30
	c22.1,0,40-17.9,40-40s-17.9-40-40-40c-18.6,0-34.3,12.8-38.7,30h-21.3v-20c0-16.5,13.5-30,30-30h200.1c16.5,0,30,13.5,30,30v20
	h-21.3c-4.5-17.2-20.1-30-38.7-30c-22.1,0-40,17.9-40,40s17.9,40,40,40c18.6,0,34.3-12.8,38.7-30h21.3v100c0,16.5-13.5,30-30,30H346
	v-50c0-16.5-13.5-30-30-30H196c-16.5,0-30,13.5-30,30v50h-10.1c-16.5,0-30-13.5-30-30c0-5.5-4.5-10-10-10s-10,4.5-10,10
	c0,27.6,22.4,50,50,50H186v20h-30c-24.1,0-44.3,17.2-49,40H96c-27.6,0-50,22.4-50,50v72C46,507.5,50.5,512,56,512z M186,140
	c11,0,20,9,20,20s-9,20-20,20s-20-9-20-20S175,140,186,140z M206,70c0-5.5,4.5-10,10-10h80c5.5,0,10,4.5,10,10v10H206V70z M326,180
	c-11,0-20-9-20-20s9-20,20-20s20,9,20,20S337,180,326,180z M306,492H206v-42c0-5.5,4.5-10,10-10h80c5.5,0,10,4.5,10,10V492z
	 M446,430v62h-40v-92h10C432.5,400,446,413.5,446,430z M196,240h120c5.5,0,10,4.5,10,10v10H186v-10C186,244.5,190.5,240,196,240z
	 M186,280h140v20H186V280z M206,320h100v20H206V320z M156,360h200c16.5,0,30,13.5,30,30v102h-60v-42c0-16.5-13.5-30-30-30h-80
	c-16.5,0-30,13.5-30,30v42h-60V390C126,373.5,139.5,360,156,360z M96,400h10v92H66v-62C66,413.5,79.5,400,96,400z"/>
<path d="M126,230c0,5.5-4.5,10-10,10s-10-4.5-10-10s4.5-10,10-10S126,224.5,126,230z"/>
</svg>
